<svg viewBox="0 0 168 168" xmlns="http://www.w3.org/2000/svg"><circle cx="84" cy="84" r="84" fill="#1DB954"/><path d="M122.42 122.77c-2.4 3.62-6.64 4.8-10.24 2.4-25-15.64-57.12-19.22-94.72-10.52-4.08 0.96-7.68-1.44-8.64-5.52-0.96-4.08 1.44-7.68 5.52-8.64 41.28-9.6 76.8-5.28 104.64 12.16 3.6 2.16 4.8 6.72 2.4 10.24h0.04zm10.64-23.68c-3.04 4.8-8.64 6.24-13.44 3.2-28.8-17.76-72.72-22.88-106.56-12.48-5.04 1.44-10.08-1.44-11.52-6.48-1.44-5.04 1.44-10.08 6.48-11.52 40.32-11.52 88.32-5.52 121.44 14.24 4.4 2.56 5.84 8.16 2.56 13.04h0.04zm0.92-24.64c-34.56-20.52-91.68-22.4-124.8-12.4-6.04 1.92-12.32-1.44-14.24-7.48-1.92-6.04 1.44-12.32 7.48-14.24 38.4-11.52 101.12-9.04 141.12 14.4 5.44 3.2 7.2 10.4 4 15.84-3.2 5.44-10.4 7.2-15.84 4 0.28 0 0.56 0 0.84-0.12h0.04z" fill="white"/></svg>